<mxfile host="app.diagrams.net" modified="2023-03-08T08:14:37.887Z" agent="5.0 (Macintosh; Intel Mac OS X 10_15_7) AppleWebKit/537.36 (KHTML, like Gecko) Chrome/96.0.4664.110 Safari/537.36" etag="Npo7rS725QRmX-ogwbK9" version="21.0.2" type="github">
  <diagram name="第 1 页" id="gZ24B_-ZByDiLzNrPH0H">
    <mxGraphModel dx="2074" dy="1119" grid="1" gridSize="10" guides="1" tooltips="1" connect="1" arrows="1" fold="1" page="1" pageScale="1" pageWidth="827" pageHeight="1169" math="0" shadow="0">
      <root>
        <mxCell id="0" />
        <mxCell id="1" parent="0" />
        <mxCell id="1HTCRGwQ664eHPj0kxUN-4" value="超级管理员" style="shape=umlActor;verticalLabelPosition=bottom;verticalAlign=top;html=1;outlineConnect=0;" vertex="1" parent="1">
          <mxGeometry x="90" y="559" width="30" height="60" as="geometry" />
        </mxCell>
        <mxCell id="1HTCRGwQ664eHPj0kxUN-128" style="edgeStyle=orthogonalEdgeStyle;rounded=0;orthogonalLoop=1;jettySize=auto;html=1;exitX=1;exitY=0.5;exitDx=0;exitDy=0;entryX=0;entryY=0.5;entryDx=0;entryDy=0;fillColor=#b1ddf0;strokeColor=#10739e;" edge="1" parent="1" source="1HTCRGwQ664eHPj0kxUN-5" target="1HTCRGwQ664eHPj0kxUN-124">
          <mxGeometry relative="1" as="geometry" />
        </mxCell>
        <mxCell id="1HTCRGwQ664eHPj0kxUN-129" style="edgeStyle=orthogonalEdgeStyle;rounded=0;orthogonalLoop=1;jettySize=auto;html=1;exitX=1;exitY=0.5;exitDx=0;exitDy=0;entryX=0;entryY=0.5;entryDx=0;entryDy=0;fillColor=#d0cee2;strokeColor=#56517e;" edge="1" parent="1" source="1HTCRGwQ664eHPj0kxUN-5" target="1HTCRGwQ664eHPj0kxUN-126">
          <mxGeometry relative="1" as="geometry" />
        </mxCell>
        <mxCell id="1HTCRGwQ664eHPj0kxUN-5" value="角色、权限、菜单管理" style="ellipse;whiteSpace=wrap;html=1;" vertex="1" parent="1">
          <mxGeometry x="233.5" y="180" width="105" height="70" as="geometry" />
        </mxCell>
        <mxCell id="1HTCRGwQ664eHPj0kxUN-30" value="" style="edgeStyle=orthogonalEdgeStyle;rounded=0;orthogonalLoop=1;jettySize=auto;html=1;" edge="1" parent="1" source="1HTCRGwQ664eHPj0kxUN-15" target="1HTCRGwQ664eHPj0kxUN-5">
          <mxGeometry relative="1" as="geometry" />
        </mxCell>
        <mxCell id="1HTCRGwQ664eHPj0kxUN-123" style="edgeStyle=orthogonalEdgeStyle;rounded=0;orthogonalLoop=1;jettySize=auto;html=1;entryX=0;entryY=0.5;entryDx=0;entryDy=0;" edge="1" parent="1" source="1HTCRGwQ664eHPj0kxUN-15" target="1HTCRGwQ664eHPj0kxUN-69">
          <mxGeometry relative="1" as="geometry" />
        </mxCell>
        <mxCell id="1HTCRGwQ664eHPj0kxUN-15" value="后台用户管理" style="ellipse;whiteSpace=wrap;html=1;" vertex="1" parent="1">
          <mxGeometry x="232.5" y="279" width="105" height="70" as="geometry" />
        </mxCell>
        <mxCell id="1HTCRGwQ664eHPj0kxUN-40" value="" style="edgeStyle=orthogonalEdgeStyle;rounded=0;orthogonalLoop=1;jettySize=auto;html=1;" edge="1" parent="1" source="1HTCRGwQ664eHPj0kxUN-33" target="1HTCRGwQ664eHPj0kxUN-34">
          <mxGeometry relative="1" as="geometry">
            <Array as="points">
              <mxPoint x="287" y="880" />
              <mxPoint x="287" y="880" />
            </Array>
          </mxGeometry>
        </mxCell>
        <mxCell id="1HTCRGwQ664eHPj0kxUN-99" style="edgeStyle=orthogonalEdgeStyle;rounded=0;orthogonalLoop=1;jettySize=auto;html=1;entryX=0;entryY=0.5;entryDx=0;entryDy=0;fillColor=#d5e8d4;strokeColor=#82b366;" edge="1" parent="1" source="1HTCRGwQ664eHPj0kxUN-33" target="1HTCRGwQ664eHPj0kxUN-71">
          <mxGeometry relative="1" as="geometry" />
        </mxCell>
        <mxCell id="1HTCRGwQ664eHPj0kxUN-33" value="活动管理&lt;br&gt;规则、奖励、时间、预算、风控" style="ellipse;whiteSpace=wrap;html=1;" vertex="1" parent="1">
          <mxGeometry x="234.5" y="730" width="105" height="70" as="geometry" />
        </mxCell>
        <mxCell id="1HTCRGwQ664eHPj0kxUN-116" style="edgeStyle=orthogonalEdgeStyle;rounded=0;orthogonalLoop=1;jettySize=auto;html=1;entryX=0;entryY=0.5;entryDx=0;entryDy=0;fillColor=#60a917;strokeColor=#2D7600;" edge="1" parent="1" source="1HTCRGwQ664eHPj0kxUN-34" target="1HTCRGwQ664eHPj0kxUN-74">
          <mxGeometry relative="1" as="geometry" />
        </mxCell>
        <mxCell id="1HTCRGwQ664eHPj0kxUN-34" value="活动数据" style="ellipse;whiteSpace=wrap;html=1;" vertex="1" parent="1">
          <mxGeometry x="242" y="830" width="100" height="60" as="geometry" />
        </mxCell>
        <mxCell id="1HTCRGwQ664eHPj0kxUN-46" value="" style="edgeStyle=orthogonalEdgeStyle;rounded=0;orthogonalLoop=1;jettySize=auto;html=1;" edge="1" parent="1" source="1HTCRGwQ664eHPj0kxUN-44" target="1HTCRGwQ664eHPj0kxUN-15">
          <mxGeometry relative="1" as="geometry" />
        </mxCell>
        <mxCell id="1HTCRGwQ664eHPj0kxUN-49" style="edgeStyle=orthogonalEdgeStyle;rounded=0;orthogonalLoop=1;jettySize=auto;html=1;exitX=0.5;exitY=1;exitDx=0;exitDy=0;entryX=0.5;entryY=0;entryDx=0;entryDy=0;" edge="1" parent="1" source="1HTCRGwQ664eHPj0kxUN-44" target="1HTCRGwQ664eHPj0kxUN-48">
          <mxGeometry relative="1" as="geometry" />
        </mxCell>
        <mxCell id="1HTCRGwQ664eHPj0kxUN-118" style="edgeStyle=orthogonalEdgeStyle;rounded=0;orthogonalLoop=1;jettySize=auto;html=1;entryX=0;entryY=0.5;entryDx=0;entryDy=0;" edge="1" parent="1" source="1HTCRGwQ664eHPj0kxUN-44" target="1HTCRGwQ664eHPj0kxUN-69">
          <mxGeometry relative="1" as="geometry" />
        </mxCell>
        <mxCell id="1HTCRGwQ664eHPj0kxUN-119" style="edgeStyle=orthogonalEdgeStyle;rounded=0;orthogonalLoop=1;jettySize=auto;html=1;exitX=1;exitY=0.5;exitDx=0;exitDy=0;entryX=0;entryY=0.5;entryDx=0;entryDy=0;" edge="1" parent="1" source="1HTCRGwQ664eHPj0kxUN-44" target="1HTCRGwQ664eHPj0kxUN-70">
          <mxGeometry relative="1" as="geometry">
            <Array as="points">
              <mxPoint x="484" y="414" />
              <mxPoint x="484" y="320" />
            </Array>
          </mxGeometry>
        </mxCell>
        <mxCell id="1HTCRGwQ664eHPj0kxUN-44" value="用户管理&lt;br&gt;风控设置" style="ellipse;whiteSpace=wrap;html=1;" vertex="1" parent="1">
          <mxGeometry x="232.5" y="379" width="105" height="70" as="geometry" />
        </mxCell>
        <mxCell id="1HTCRGwQ664eHPj0kxUN-51" value="" style="edgeStyle=orthogonalEdgeStyle;rounded=0;orthogonalLoop=1;jettySize=auto;html=1;" edge="1" parent="1" source="1HTCRGwQ664eHPj0kxUN-48" target="1HTCRGwQ664eHPj0kxUN-50">
          <mxGeometry relative="1" as="geometry" />
        </mxCell>
        <mxCell id="1HTCRGwQ664eHPj0kxUN-122" style="edgeStyle=orthogonalEdgeStyle;rounded=0;orthogonalLoop=1;jettySize=auto;html=1;exitX=1;exitY=0.5;exitDx=0;exitDy=0;entryX=0;entryY=0.5;entryDx=0;entryDy=0;" edge="1" parent="1" source="1HTCRGwQ664eHPj0kxUN-48" target="1HTCRGwQ664eHPj0kxUN-69">
          <mxGeometry relative="1" as="geometry">
            <Array as="points">
              <mxPoint x="420" y="504" />
              <mxPoint x="420" y="414" />
            </Array>
          </mxGeometry>
        </mxCell>
        <mxCell id="1HTCRGwQ664eHPj0kxUN-136" style="edgeStyle=orthogonalEdgeStyle;rounded=0;orthogonalLoop=1;jettySize=auto;html=1;exitX=1;exitY=0.5;exitDx=0;exitDy=0;entryX=0;entryY=0.5;entryDx=0;entryDy=0;fillColor=#e3c800;strokeColor=#B09500;" edge="1" parent="1" source="1HTCRGwQ664eHPj0kxUN-48" target="1HTCRGwQ664eHPj0kxUN-85">
          <mxGeometry relative="1" as="geometry">
            <Array as="points">
              <mxPoint x="338" y="510" />
              <mxPoint x="600" y="510" />
            </Array>
          </mxGeometry>
        </mxCell>
        <mxCell id="1HTCRGwQ664eHPj0kxUN-143" style="edgeStyle=orthogonalEdgeStyle;rounded=0;orthogonalLoop=1;jettySize=auto;html=1;exitX=0;exitY=0.5;exitDx=0;exitDy=0;entryX=0;entryY=0.5;entryDx=0;entryDy=0;" edge="1" parent="1" source="1HTCRGwQ664eHPj0kxUN-48" target="1HTCRGwQ664eHPj0kxUN-134">
          <mxGeometry relative="1" as="geometry" />
        </mxCell>
        <mxCell id="1HTCRGwQ664eHPj0kxUN-48" value="app用户管理" style="ellipse;whiteSpace=wrap;html=1;" vertex="1" parent="1">
          <mxGeometry x="232.5" y="469" width="105" height="70" as="geometry" />
        </mxCell>
        <mxCell id="1HTCRGwQ664eHPj0kxUN-117" style="edgeStyle=orthogonalEdgeStyle;rounded=0;orthogonalLoop=1;jettySize=auto;html=1;exitX=1;exitY=0.5;exitDx=0;exitDy=0;entryX=0;entryY=0.5;entryDx=0;entryDy=0;fillColor=#1ba1e2;strokeColor=#006EAF;" edge="1" parent="1" source="1HTCRGwQ664eHPj0kxUN-50" target="1HTCRGwQ664eHPj0kxUN-80">
          <mxGeometry relative="1" as="geometry" />
        </mxCell>
        <mxCell id="1HTCRGwQ664eHPj0kxUN-50" value="用户好友收益" style="ellipse;whiteSpace=wrap;html=1;" vertex="1" parent="1">
          <mxGeometry x="231" y="559" width="107.5" height="70" as="geometry" />
        </mxCell>
        <mxCell id="1HTCRGwQ664eHPj0kxUN-57" value="" style="edgeStyle=orthogonalEdgeStyle;rounded=0;orthogonalLoop=1;jettySize=auto;html=1;" edge="1" parent="1" source="1HTCRGwQ664eHPj0kxUN-53" target="1HTCRGwQ664eHPj0kxUN-54">
          <mxGeometry relative="1" as="geometry" />
        </mxCell>
        <mxCell id="1HTCRGwQ664eHPj0kxUN-115" style="edgeStyle=orthogonalEdgeStyle;rounded=0;orthogonalLoop=1;jettySize=auto;html=1;entryX=0;entryY=0.5;entryDx=0;entryDy=0;" edge="1" parent="1" source="1HTCRGwQ664eHPj0kxUN-53" target="1HTCRGwQ664eHPj0kxUN-75">
          <mxGeometry relative="1" as="geometry" />
        </mxCell>
        <mxCell id="1HTCRGwQ664eHPj0kxUN-53" value="提现管理" style="ellipse;whiteSpace=wrap;html=1;" vertex="1" parent="1">
          <mxGeometry x="237" y="910" width="105" height="70" as="geometry" />
        </mxCell>
        <mxCell id="1HTCRGwQ664eHPj0kxUN-105" style="edgeStyle=orthogonalEdgeStyle;rounded=0;orthogonalLoop=1;jettySize=auto;html=1;exitX=1;exitY=0.5;exitDx=0;exitDy=0;entryX=0;entryY=0.5;entryDx=0;entryDy=0;" edge="1" parent="1" source="1HTCRGwQ664eHPj0kxUN-54" target="1HTCRGwQ664eHPj0kxUN-75">
          <mxGeometry relative="1" as="geometry" />
        </mxCell>
        <mxCell id="1HTCRGwQ664eHPj0kxUN-106" style="edgeStyle=orthogonalEdgeStyle;rounded=0;orthogonalLoop=1;jettySize=auto;html=1;exitX=1;exitY=0.5;exitDx=0;exitDy=0;entryX=0;entryY=0.5;entryDx=0;entryDy=0;" edge="1" parent="1" source="1HTCRGwQ664eHPj0kxUN-54" target="1HTCRGwQ664eHPj0kxUN-76">
          <mxGeometry relative="1" as="geometry" />
        </mxCell>
        <mxCell id="1HTCRGwQ664eHPj0kxUN-54" value="提现记录、审核" style="ellipse;whiteSpace=wrap;html=1;" vertex="1" parent="1">
          <mxGeometry x="237" y="1000" width="105" height="70" as="geometry" />
        </mxCell>
        <mxCell id="1HTCRGwQ664eHPj0kxUN-86" style="edgeStyle=orthogonalEdgeStyle;rounded=0;orthogonalLoop=1;jettySize=auto;html=1;entryX=0;entryY=0.5;entryDx=0;entryDy=0;fillColor=#fff2cc;strokeColor=#d6b656;" edge="1" parent="1" source="1HTCRGwQ664eHPj0kxUN-55" target="1HTCRGwQ664eHPj0kxUN-84">
          <mxGeometry relative="1" as="geometry" />
        </mxCell>
        <mxCell id="1HTCRGwQ664eHPj0kxUN-55" value="广告管理" style="ellipse;whiteSpace=wrap;html=1;" vertex="1" parent="1">
          <mxGeometry x="242" y="1090" width="105" height="70" as="geometry" />
        </mxCell>
        <mxCell id="1HTCRGwQ664eHPj0kxUN-88" style="edgeStyle=orthogonalEdgeStyle;rounded=0;orthogonalLoop=1;jettySize=auto;html=1;entryX=0;entryY=0.5;entryDx=0;entryDy=0;fillColor=#f5f5f5;strokeColor=#666666;" edge="1" parent="1" source="1HTCRGwQ664eHPj0kxUN-58" target="1HTCRGwQ664eHPj0kxUN-83">
          <mxGeometry relative="1" as="geometry" />
        </mxCell>
        <mxCell id="1HTCRGwQ664eHPj0kxUN-58" value="版本管理" style="ellipse;whiteSpace=wrap;html=1;" vertex="1" parent="1">
          <mxGeometry x="239.5" y="1179" width="105" height="70" as="geometry" />
        </mxCell>
        <mxCell id="1HTCRGwQ664eHPj0kxUN-132" style="edgeStyle=orthogonalEdgeStyle;rounded=0;orthogonalLoop=1;jettySize=auto;html=1;exitX=1;exitY=0.5;exitDx=0;exitDy=0;entryX=0;entryY=0.5;entryDx=0;entryDy=0;fillColor=#e51400;strokeColor=#B20000;" edge="1" parent="1" source="1HTCRGwQ664eHPj0kxUN-59" target="1HTCRGwQ664eHPj0kxUN-131">
          <mxGeometry relative="1" as="geometry" />
        </mxCell>
        <mxCell id="1HTCRGwQ664eHPj0kxUN-59" value="特殊配置&lt;br&gt;分销收益、手续费、提示信息等...." style="ellipse;whiteSpace=wrap;html=1;" vertex="1" parent="1">
          <mxGeometry x="232.5" y="1275" width="105" height="70" as="geometry" />
        </mxCell>
        <mxCell id="1HTCRGwQ664eHPj0kxUN-62" value="" style="curved=1;endArrow=classic;html=1;rounded=0;" edge="1" parent="1">
          <mxGeometry width="50" height="50" relative="1" as="geometry">
            <mxPoint x="171.5" y="585" as="sourcePoint" />
            <mxPoint x="231.5" y="416" as="targetPoint" />
            <Array as="points">
              <mxPoint x="171.5" y="535" />
            </Array>
          </mxGeometry>
        </mxCell>
        <mxCell id="1HTCRGwQ664eHPj0kxUN-64" value="" style="edgeStyle=orthogonalEdgeStyle;curved=1;rounded=0;orthogonalLoop=1;jettySize=auto;html=1;fontSize=14;entryX=0.5;entryY=0;entryDx=0;entryDy=0;" edge="1" parent="1" target="1HTCRGwQ664eHPj0kxUN-33">
          <mxGeometry relative="1" as="geometry">
            <mxPoint x="170" y="580" as="sourcePoint" />
            <mxPoint x="300" y="755" as="targetPoint" />
            <Array as="points">
              <mxPoint x="170" y="730" />
            </Array>
          </mxGeometry>
        </mxCell>
        <mxCell id="1HTCRGwQ664eHPj0kxUN-65" value="" style="edgeStyle=orthogonalEdgeStyle;curved=1;rounded=0;orthogonalLoop=1;jettySize=auto;html=1;fontSize=14;entryX=0.5;entryY=0;entryDx=0;entryDy=0;" edge="1" parent="1" target="1HTCRGwQ664eHPj0kxUN-53">
          <mxGeometry relative="1" as="geometry">
            <mxPoint x="170" y="585" as="sourcePoint" />
            <mxPoint x="300" y="755" as="targetPoint" />
            <Array as="points">
              <mxPoint x="170" y="900" />
              <mxPoint x="290" y="900" />
            </Array>
          </mxGeometry>
        </mxCell>
        <mxCell id="1HTCRGwQ664eHPj0kxUN-66" value="" style="edgeStyle=orthogonalEdgeStyle;curved=1;rounded=0;orthogonalLoop=1;jettySize=auto;html=1;fontSize=14;" edge="1" parent="1" target="1HTCRGwQ664eHPj0kxUN-55">
          <mxGeometry relative="1" as="geometry">
            <mxPoint x="170" y="590" as="sourcePoint" />
            <mxPoint x="298" y="840" as="targetPoint" />
            <Array as="points">
              <mxPoint x="150" y="590" />
              <mxPoint x="150" y="1090" />
            </Array>
          </mxGeometry>
        </mxCell>
        <mxCell id="1HTCRGwQ664eHPj0kxUN-67" value="" style="edgeStyle=orthogonalEdgeStyle;curved=1;rounded=0;orthogonalLoop=1;jettySize=auto;html=1;fontSize=14;entryX=0.5;entryY=0;entryDx=0;entryDy=0;" edge="1" parent="1" target="1HTCRGwQ664eHPj0kxUN-58">
          <mxGeometry relative="1" as="geometry">
            <mxPoint x="170" y="590" as="sourcePoint" />
            <mxPoint x="303" y="1020" as="targetPoint" />
            <Array as="points">
              <mxPoint x="170" y="600" />
              <mxPoint x="160" y="600" />
              <mxPoint x="160" y="1179" />
            </Array>
          </mxGeometry>
        </mxCell>
        <mxCell id="1HTCRGwQ664eHPj0kxUN-68" value="" style="edgeStyle=orthogonalEdgeStyle;curved=1;rounded=0;orthogonalLoop=1;jettySize=auto;html=1;fontSize=14;entryX=0.5;entryY=0;entryDx=0;entryDy=0;" edge="1" parent="1" target="1HTCRGwQ664eHPj0kxUN-59">
          <mxGeometry relative="1" as="geometry">
            <mxPoint x="170" y="590" as="sourcePoint" />
            <mxPoint x="303" y="1020" as="targetPoint" />
            <Array as="points">
              <mxPoint x="170" y="600" />
              <mxPoint x="160" y="600" />
              <mxPoint x="160" y="1250" />
              <mxPoint x="286" y="1250" />
            </Array>
          </mxGeometry>
        </mxCell>
        <mxCell id="1HTCRGwQ664eHPj0kxUN-69" value="用户信息表&lt;br&gt;user_info&lt;br&gt;user_info_ex" style="html=1;fontSize=14;shadow=1;strokeColor=#000099;" vertex="1" parent="1">
          <mxGeometry x="630" y="384" width="170" height="60" as="geometry" />
        </mxCell>
        <mxCell id="1HTCRGwQ664eHPj0kxUN-70" value="风控表&lt;br&gt;tr_risk_black_list" style="html=1;fontSize=14;shadow=1;strokeColor=#000099;" vertex="1" parent="1">
          <mxGeometry x="630" y="289" width="170" height="60" as="geometry" />
        </mxCell>
        <mxCell id="1HTCRGwQ664eHPj0kxUN-71" value="活动信息表&lt;br&gt;job_info&lt;br&gt;job_info_ex" style="html=1;fontSize=14;shadow=1;strokeColor=#000000;" vertex="1" parent="1">
          <mxGeometry x="632" y="735" width="170" height="60" as="geometry" />
        </mxCell>
        <mxCell id="1HTCRGwQ664eHPj0kxUN-72" style="edgeStyle=orthogonalEdgeStyle;curved=1;rounded=0;orthogonalLoop=1;jettySize=auto;html=1;fontSize=14;strokeColor=#FF6666;" edge="1" parent="1" source="1HTCRGwQ664eHPj0kxUN-74" target="1HTCRGwQ664eHPj0kxUN-77">
          <mxGeometry relative="1" as="geometry">
            <mxPoint x="952" y="855" as="targetPoint" />
          </mxGeometry>
        </mxCell>
        <mxCell id="1HTCRGwQ664eHPj0kxUN-73" value="定时任务" style="edgeLabel;html=1;align=center;verticalAlign=middle;resizable=0;points=[];fontSize=14;" vertex="1" connectable="0" parent="1HTCRGwQ664eHPj0kxUN-72">
          <mxGeometry x="0.2" y="4" relative="1" as="geometry">
            <mxPoint as="offset" />
          </mxGeometry>
        </mxCell>
        <mxCell id="1HTCRGwQ664eHPj0kxUN-74" value="活动记录表&lt;br&gt;job_user_recive_log&lt;br&gt;job_user_walking_log&lt;br&gt;task_daliy_log" style="html=1;fontSize=14;shadow=1;strokeColor=#000000;" vertex="1" parent="1">
          <mxGeometry x="632" y="825" width="170" height="70" as="geometry" />
        </mxCell>
        <mxCell id="1HTCRGwQ664eHPj0kxUN-75" value="订单表’&lt;br&gt;biz_order&lt;br&gt;biz_order_ex" style="html=1;fontSize=14;shadow=1;strokeColor=#000000;" vertex="1" parent="1">
          <mxGeometry x="632" y="1005" width="170" height="60" as="geometry" />
        </mxCell>
        <mxCell id="1HTCRGwQ664eHPj0kxUN-76" value="钱包流水&lt;br&gt;welletfollw&lt;br&gt;balance" style="html=1;fontSize=14;shadow=1;strokeColor=#000000;" vertex="1" parent="1">
          <mxGeometry x="632" y="915" width="170" height="60" as="geometry" />
        </mxCell>
        <mxCell id="1HTCRGwQ664eHPj0kxUN-77" value="活动记录统计表&lt;br&gt;job_user_recive_log&lt;br&gt;job_user_walking_month_statistics" style="html=1;fontSize=14;shadow=1;strokeColor=#000000;" vertex="1" parent="1">
          <mxGeometry x="912" y="825" width="260" height="60" as="geometry" />
        </mxCell>
        <mxCell id="1HTCRGwQ664eHPj0kxUN-78" style="edgeStyle=orthogonalEdgeStyle;curved=1;rounded=0;orthogonalLoop=1;jettySize=auto;html=1;entryX=0;entryY=0.5;entryDx=0;entryDy=0;fontSize=14;strokeColor=#33FF33;" edge="1" parent="1" source="1HTCRGwQ664eHPj0kxUN-80" target="1HTCRGwQ664eHPj0kxUN-81">
          <mxGeometry relative="1" as="geometry" />
        </mxCell>
        <mxCell id="1HTCRGwQ664eHPj0kxUN-79" value="定时任务" style="edgeLabel;html=1;align=center;verticalAlign=middle;resizable=0;points=[];fontSize=14;" vertex="1" connectable="0" parent="1HTCRGwQ664eHPj0kxUN-78">
          <mxGeometry x="0.3067" y="-2" relative="1" as="geometry">
            <mxPoint as="offset" />
          </mxGeometry>
        </mxCell>
        <mxCell id="1HTCRGwQ664eHPj0kxUN-80" value="好友收益表&lt;br&gt;friend_reward&lt;br&gt;" style="html=1;fontSize=14;shadow=1;strokeColor=#000000;" vertex="1" parent="1">
          <mxGeometry x="630" y="564" width="170" height="60" as="geometry" />
        </mxCell>
        <mxCell id="1HTCRGwQ664eHPj0kxUN-81" value="好友收益统计表&lt;br&gt;friend_reward_statistics" style="html=1;fontSize=14;shadow=1;strokeColor=#000000;" vertex="1" parent="1">
          <mxGeometry x="900" y="564" width="170" height="60" as="geometry" />
        </mxCell>
        <mxCell id="1HTCRGwQ664eHPj0kxUN-82" value="用户消息表&lt;br&gt;user_message&lt;br&gt;user_message_ex" style="html=1;fontSize=14;shadow=1;strokeColor=#000000;" vertex="1" parent="1">
          <mxGeometry x="630" y="645" width="170" height="60" as="geometry" />
        </mxCell>
        <mxCell id="1HTCRGwQ664eHPj0kxUN-83" value="APP信息表&lt;br&gt;app_version&lt;br&gt;" style="html=1;fontSize=14;shadow=1;strokeColor=#000099;" vertex="1" parent="1">
          <mxGeometry x="630" y="1184" width="170" height="60" as="geometry" />
        </mxCell>
        <mxCell id="1HTCRGwQ664eHPj0kxUN-84" value="APP广告设置&lt;br&gt;ad_info&lt;br&gt;" style="html=1;fontSize=14;shadow=1;strokeColor=#000000;" vertex="1" parent="1">
          <mxGeometry x="632" y="1095" width="170" height="60" as="geometry" />
        </mxCell>
        <mxCell id="1HTCRGwQ664eHPj0kxUN-85" value="收款方式&lt;br&gt;user_account" style="html=1;fontSize=14;shadow=1;strokeColor=#000000;" vertex="1" parent="1">
          <mxGeometry x="630" y="480" width="170" height="60" as="geometry" />
        </mxCell>
        <mxCell id="1HTCRGwQ664eHPj0kxUN-124" value="角色表权限&lt;br&gt;role" style="html=1;fontSize=14;shadow=1;strokeColor=#000099;" vertex="1" parent="1">
          <mxGeometry x="631" y="185" width="170" height="60" as="geometry" />
        </mxCell>
        <mxCell id="1HTCRGwQ664eHPj0kxUN-126" value="权限菜单表&lt;br&gt;mem" style="html=1;fontSize=14;shadow=1;strokeColor=#000099;" vertex="1" parent="1">
          <mxGeometry x="630" y="90" width="170" height="60" as="geometry" />
        </mxCell>
        <mxCell id="1HTCRGwQ664eHPj0kxUN-131" value="配置信息表&lt;br&gt;config" style="html=1;fontSize=14;shadow=1;strokeColor=#000099;" vertex="1" parent="1">
          <mxGeometry x="632" y="1280" width="170" height="60" as="geometry" />
        </mxCell>
        <mxCell id="1HTCRGwQ664eHPj0kxUN-135" style="edgeStyle=orthogonalEdgeStyle;rounded=0;orthogonalLoop=1;jettySize=auto;html=1;fillColor=#f8cecc;strokeColor=#b85450;" edge="1" parent="1" source="1HTCRGwQ664eHPj0kxUN-134" target="1HTCRGwQ664eHPj0kxUN-82">
          <mxGeometry relative="1" as="geometry" />
        </mxCell>
        <mxCell id="1HTCRGwQ664eHPj0kxUN-134" value="消息通知" style="ellipse;whiteSpace=wrap;html=1;" vertex="1" parent="1">
          <mxGeometry x="230" y="640" width="107.5" height="70" as="geometry" />
        </mxCell>
      </root>
    </mxGraphModel>
  </diagram>
</mxfile>
